<?xml version="1.0" encoding="UTF-8"?>
<svg id="_レイヤー_2" data-name="レイヤー 2" xmlns="http://www.w3.org/2000/svg" viewBox="0 0 148.3 148.3">
  <defs>
    <style>
      .cls-1 {
        fill: none;
        stroke: #fff;
        stroke-miterlimit: 10;
      }
    </style>
  </defs>
  <g id="_レイヤー_4" data-name="レイヤー 4">
    <path class="cls-1" d="M10.73,103.98C-31.47,58.2,69.79,23.67,81.61,35.5c9.29,9.29-26.08,113.29-70.89,68.48Z"/>
    <path class="cls-1" d="M106.76,52.1c0-16.73-96.02-63.91-98.55-1.7,0,63.37,98.55,14.84,98.55,1.7Z"/>
    <path class="cls-1" d="M112.8,81.61c11.83-11.83-22.7-113.09-68.48-70.89C-.49,55.54,103.51,90.9,112.8,81.61Z"/>
    <path class="cls-1" d="M96.2,106.76c16.73,0,63.91-96.02,1.7-98.55-63.37,0-14.84,98.55-1.7,98.55Z"/>
    <path class="cls-1" d="M66.69,112.8c11.83,11.83,113.09-22.7,70.89-68.48C92.76-.49,57.4,103.51,66.69,112.8Z"/>
    <path class="cls-1" d="M41.55,96.2c0,16.73,96.02,63.91,98.55,1.7,0-63.37-98.55-14.84-98.55-1.7Z"/>
    <path class="cls-1" d="M35.5,66.69c-11.83,11.83,22.7,113.09,68.48,70.89,44.81-44.81-59.19-80.17-68.48-70.89Z"/>
    <path class="cls-1" d="M52.1,41.55c-16.73,0-63.91,96.02-1.7,98.55,63.37,0,14.84-98.55,1.7-98.55Z"/>
  </g>
</svg>