<?xml version="1.0" encoding="UTF-8"?>
<svg id="_レイヤー_2" data-name="レイヤー 2" xmlns="http://www.w3.org/2000/svg" viewBox="0 0 150.8 150.8">
  <defs>
    <style>
      .cls-1 {
        fill: none;
        stroke: #29abe2;
        stroke-miterlimit: 10;
        stroke-width: 2px;
      }
    </style>
  </defs>
  <g id="_レイヤー_2-2" data-name="レイヤー 2">
    <path class="cls-1" d="M11.33,105.53C-31.29,59.29,70.99,24.41,82.94,36.36c9.38,9.38-26.34,114.44-71.61,69.17ZM108.34,53.12c0-16.9-96.99-64.56-99.55-1.72,0,64.02,99.55,14.99,99.55,1.72ZM114.44,82.94c11.95-11.95-22.93-114.23-69.17-71.61C0,56.6,105.06,92.32,114.44,82.94ZM97.67,108.33c16.9,0,64.56-96.99,1.72-99.55-64.02,0-14.99,99.55-1.72,99.55ZM67.86,114.44c11.95,11.95,114.23-22.93,71.61-69.17C94.2,0,58.48,105.06,67.86,114.44ZM42.46,97.67c0,16.9,96.99,64.56,99.55,1.72,0-64.02-99.55-14.99-99.55-1.72ZM36.36,67.86c-11.95,11.95,22.93,114.23,69.17,71.61,45.27-45.27-59.79-80.99-69.17-71.61ZM53.13,42.46c-16.9,0-64.56,96.99-1.72,99.55,64.02,0,14.99-99.55,1.72-99.55Z"/>
  </g>
</svg>