<?xml version="1.0" encoding="UTF-8"?>
<svg id="_レイヤー_1" data-name="レイヤー 1" xmlns="http://www.w3.org/2000/svg" xmlns:xlink="http://www.w3.org/1999/xlink" viewBox="0 0 560 420">
  <defs>
    <style>
      .cls-1 {
        filter: url(#drop-shadow-2);
      }

      .cls-2 {
        filter: url(#drop-shadow-5);
      }

      .cls-3, .cls-4, .cls-5, .cls-6, .cls-7 {
        stroke: #fff;
        stroke-miterlimit: 10;
      }

      .cls-3, .cls-5, .cls-6 {
        stroke-width: 6px;
      }

      .cls-3, .cls-8 {
        fill: #d0ee5c;
      }

      .cls-9 {
        filter: url(#drop-shadow-1);
      }

      .cls-4 {
        fill: #d8df1d;
        filter: url(#drop-shadow-4);
      }

      .cls-4, .cls-7 {
        stroke-width: 3px;
      }

      .cls-10, .cls-6 {
        fill: #7be037;
      }

      .cls-5 {
        fill: #ffbfd0;
      }

      .cls-7 {
        fill: #ffd862;
        filter: url(#drop-shadow-3);
      }
    </style>
    <filter id="drop-shadow-1" x="1" y="211" width="551" height="172" filterUnits="userSpaceOnUse">
      <feOffset dx="2" dy="2"/>
      <feGaussianBlur result="blur" stdDeviation="1"/>
      <feFlood flood-color="#6c7387" flood-opacity=".65"/>
      <feComposite in2="blur" operator="in"/>
      <feComposite in="SourceGraphic"/>
    </filter>
    <filter id="drop-shadow-2" x="383" y="-1" width="175" height="173" filterUnits="userSpaceOnUse">
      <feOffset dx="2" dy="2"/>
      <feGaussianBlur result="blur-2" stdDeviation="1"/>
      <feFlood flood-color="#6c7387" flood-opacity=".65"/>
      <feComposite in2="blur-2" operator="in"/>
      <feComposite in="SourceGraphic"/>
    </filter>
    <filter id="drop-shadow-3" x="164" y="75" width="104" height="103" filterUnits="userSpaceOnUse">
      <feOffset dx="2" dy="2"/>
      <feGaussianBlur result="blur-3" stdDeviation="1"/>
      <feFlood flood-color="#6c7387" flood-opacity=".65"/>
      <feComposite in2="blur-3" operator="in"/>
      <feComposite in="SourceGraphic"/>
    </filter>
    <filter id="drop-shadow-4" x="271" y="35" width="56" height="56" filterUnits="userSpaceOnUse">
      <feOffset dx="2" dy="2"/>
      <feGaussianBlur result="blur-4" stdDeviation="1"/>
      <feFlood flood-color="#6c7387" flood-opacity=".65"/>
      <feComposite in2="blur-4" operator="in"/>
      <feComposite in="SourceGraphic"/>
    </filter>
    <filter id="drop-shadow-5" x="145" y="373" width="401" height="48" filterUnits="userSpaceOnUse">
      <feOffset dx="2" dy="2"/>
      <feGaussianBlur result="blur-5" stdDeviation="1"/>
      <feFlood flood-color="#6c7387" flood-opacity=".65"/>
      <feComposite in2="blur-5" operator="in"/>
      <feComposite in="SourceGraphic"/>
    </filter>
  </defs>
  <g class="cls-9">
    <g>
      <path class="cls-6" d="M79.47,310.25c0,9.32-3.23,17.19-9.69,23.61s-14.34,9.63-23.63,9.63c-5.44,0-10.6-1.25-15.47-3.74-.68-.34-1.3-.34-1.87,0-.57.34-.85.85-.85,1.53v25.33c0,2.15,1.08,3.23,3.23,3.23h2.38c1.58,0,2.38.79,2.38,2.38,0,1.47-.79,2.21-2.38,2.21H7.22c-1.47,0-2.21-.74-2.21-2.21,0-1.59.74-2.38,2.21-2.38h2.55c2.15,0,3.23-1.08,3.23-3.24v-81.76c0-2.16-1.08-3.24-3.23-3.24h-2.55c-1.47,0-2.21-.79-2.21-2.38,0-1.47.74-2.21,2.21-2.21h17c2.49,0,3.74,1.29,3.74,3.88,0,1.16.51,1.45,1.53.88,5.21-3.17,10.77-4.76,16.66-4.76,9.29,0,17.17,3.21,23.63,9.63,6.46,6.42,9.69,14.29,9.69,23.6ZM74.88,310.16c0-7.93-2.8-14.68-8.42-20.23-5.61-5.55-12.38-8.33-20.31-8.33-5.67,0-10.82,1.53-15.47,4.59-1.81,1.13-2.72,2.83-2.72,5.1v37.74c0,2.27.91,3.97,2.72,5.1,4.87,3.17,10.03,4.76,15.47,4.76,7.93,0,14.7-2.81,20.31-8.42,5.61-5.61,8.42-12.38,8.42-20.32Z"/>
      <path class="cls-6" d="M151.04,310.25c0,9.32-3.23,17.19-9.69,23.61s-14.34,9.63-23.63,9.63-17-3.24-23.46-9.71c-6.46-6.48-9.69-14.32-9.69-23.52s3.23-17.04,9.69-23.52c6.46-6.48,14.28-9.72,23.46-9.72s17.17,3.21,23.63,9.63c6.46,6.42,9.69,14.29,9.69,23.6ZM146.45,310.16c0-7.93-2.8-14.68-8.42-20.23-5.61-5.55-12.38-8.33-20.31-8.33-3.51,0-6.8.57-9.86,1.7-2.04.79-3.06,2.32-3.06,4.59v44.71c0,2.15,1.02,3.63,3.06,4.42,3.17,1.25,6.46,1.87,9.86,1.87,7.93,0,14.71-2.81,20.31-8.42s8.42-12.38,8.42-20.32Z"/>
      <path class="cls-6" d="M226.18,302.84c.11,1.6-.57,2.39-2.04,2.39-1.59,0-2.44-.74-2.55-2.23-.57-6.05-3.09-11.13-7.57-15.24-4.48-4.11-9.72-6.17-15.72-6.17-6.46,0-11.99,2.29-16.58,6.88s-6.88,10.12-6.88,16.58v30.43c0,2.27,1.08,3.4,3.23,3.4h2.38c1.58,0,2.38.76,2.38,2.29s-.79,2.29-2.38,2.29h-26.35c-1.47,0-2.21-.77-2.21-2.29s.74-2.29,2.21-2.29h2.55c2.15,0,3.23-1.13,3.23-3.4v-50.66c0-2.15-1.08-3.23-3.23-3.23h-2.55c-1.47,0-2.21-.79-2.21-2.38,0-1.47.74-2.21,2.21-2.21h14.28c1.81,0,3.34.63,4.59,1.9,1.25,1.27,1.87,2.82,1.87,4.67v2.42c0,.58.28.98.85,1.21.57.23,1.02.11,1.36-.34,5.67-6.57,12.75-9.85,21.25-9.85,7.25,0,13.57,2.48,18.96,7.44,5.38,4.96,8.36,11.09,8.92,18.39Z"/>
      <path class="cls-6" d="M268.17,341.27c0,1.59-.74,2.32-2.21,2.21-8.73-.79-16.07-4.35-22.02-10.65-5.95-6.31-8.92-13.84-8.92-22.59v-25.4c0-2.16-1.08-3.24-3.23-3.24h-2.55c-1.47,0-2.21-.79-2.21-2.38,0-1.47.74-2.21,2.21-2.21h2.55c2.15,0,3.23-1.07,3.23-3.22v-52.05c0-1.7.65-3.19,1.96-4.49,1.3-1.3,2.8-1.95,4.5-1.95h14.11c1.58,0,2.38.79,2.38,2.38,0,1.47-.79,2.21-2.38,2.21h-2.38c-2.15,0-3.23,1.07-3.23,3.22v50.68c0,2.15,1.08,3.22,3.23,3.22h12.75c1.47,0,2.21.74,2.21,2.21,0,1.59-.74,2.38-2.21,2.38h-12.75c-2.15,0-3.23,1.08-3.23,3.24v25.4c0,8.64.79,14.89,2.38,18.76,2.49,6.02,7.03,9.32,13.6,9.89,1.47.11,2.21.91,2.21,2.38Z"/>
      <path class="cls-6" d="M322.91,279.22c0,1.59-.74,2.38-2.21,2.38h-12.75c-2.15,0-3.23,1.08-3.23,3.23v50.66c0,2.27,1.08,3.4,3.23,3.4h2.38c1.58,0,2.38.76,2.38,2.29s-.79,2.29-2.38,2.29h-26.35c-1.47,0-2.21-.77-2.21-2.29s.74-2.29,2.21-2.29h2.55c2.15,0,3.23-1.13,3.23-3.4v-50.66c0-2.15-1.08-3.23-3.23-3.23h-2.55c-1.47,0-2.21-.79-2.21-2.38,0-1.47.74-2.21,2.21-2.21h2.55c2.15,0,3.23-1.08,3.23-3.23v-25.5c0-8.73,2.97-16.21,8.92-22.44,5.95-6.23,13.29-9.75,22.02-10.54,1.47-.11,2.21.57,2.21,2.04,0,1.59-.74,2.44-2.21,2.55-6.69.57-11.22,3.8-13.6,9.69-1.59,3.85-2.38,10.09-2.38,18.7v25.5c0,2.15,1.08,3.23,3.23,3.23h12.75c1.47,0,2.21.74,2.21,2.21Z"/>
      <path class="cls-6" d="M391.07,310.25c0,9.32-3.23,17.19-9.69,23.61s-14.34,9.63-23.63,9.63-17-3.24-23.46-9.71c-6.46-6.48-9.69-14.32-9.69-23.52s3.23-17.04,9.69-23.52c6.46-6.48,14.28-9.72,23.46-9.72s17.17,3.21,23.63,9.63c6.46,6.42,9.69,14.29,9.69,23.6ZM386.49,310.16c0-7.93-2.8-14.68-8.42-20.23-5.61-5.55-12.38-8.33-20.31-8.33-3.51,0-6.8.57-9.86,1.7-2.04.79-3.06,2.32-3.06,4.59v44.71c0,2.15,1.02,3.63,3.06,4.42,3.17,1.25,6.46,1.87,9.86,1.87,7.93,0,14.71-2.81,20.31-8.42s8.42-12.38,8.42-20.32Z"/>
      <path class="cls-6" d="M427.11,341.19c0,1.53-.79,2.29-2.38,2.29h-26.35c-1.47,0-2.21-.77-2.21-2.29s.74-2.29,2.21-2.29h2.55c2.15,0,3.23-1.13,3.23-3.39v-112.38c0-2.15-1.08-3.22-3.23-3.22h-2.55c-1.47,0-2.21-.74-2.21-2.21,0-1.59.74-2.38,2.21-2.38h26.35c1.58,0,2.38.79,2.38,2.38,0,1.47-.79,2.21-2.38,2.21h-2.38c-2.15,0-3.23,1.08-3.23,3.22v112.38c0,2.26,1.08,3.39,3.23,3.39h2.38c1.58,0,2.38.76,2.38,2.29Z"/>
      <path class="cls-6" d="M467.4,341.19c0,1.53-.79,2.29-2.38,2.29h-26.35c-1.47,0-2.21-.77-2.21-2.29s.74-2.29,2.21-2.29h2.55c2.15,0,3.23-1.13,3.23-3.4v-50.66c0-2.15-1.08-3.23-3.23-3.23h-2.55c-1.47,0-2.21-.79-2.21-2.38,0-1.47.74-2.21,2.21-2.21h26.35c1.58,0,2.38.74,2.38,2.21,0,1.59-.79,2.38-2.38,2.38h-2.38c-2.15,0-3.23,1.08-3.23,3.23v50.66c0,2.27,1.08,3.4,3.23,3.4h2.38c1.58,0,2.38.76,2.38,2.29ZM459.41,263.92c0,2.15-.71,3.94-2.12,5.36s-3.2,2.12-5.36,2.12c-2.04,0-3.8-.74-5.27-2.21-1.47-1.47-2.21-3.23-2.21-5.27s.74-3.77,2.21-5.18c1.47-1.42,3.23-2.12,5.27-2.12s3.8.71,5.27,2.12c1.47,1.42,2.21,3.14,2.21,5.18Z"/>
      <path class="cls-6" d="M543.22,310.25c0,9.32-3.23,17.19-9.69,23.61s-14.34,9.63-23.63,9.63-17-3.24-23.46-9.71c-6.46-6.48-9.69-14.32-9.69-23.52s3.23-17.04,9.69-23.52c6.46-6.48,14.28-9.72,23.46-9.72s17.17,3.21,23.63,9.63c6.46,6.42,9.69,14.29,9.69,23.6ZM538.63,310.16c0-7.93-2.8-14.68-8.42-20.23-5.61-5.55-12.38-8.33-20.31-8.33-3.51,0-6.8.57-9.86,1.7-2.04.79-3.06,2.32-3.06,4.59v44.71c0,2.15,1.02,3.63,3.06,4.42,3.17,1.25,6.46,1.87,9.86,1.87,7.93,0,14.71-2.81,20.31-8.42s8.42-12.38,8.42-20.32Z"/>
    </g>
    <g>
      <path class="cls-10" d="M79.47,310.25c0,9.32-3.23,17.19-9.69,23.61s-14.34,9.63-23.63,9.63c-5.44,0-10.6-1.25-15.47-3.74-.68-.34-1.3-.34-1.87,0-.57.34-.85.85-.85,1.53v25.33c0,2.15,1.08,3.23,3.23,3.23h2.38c1.58,0,2.38.79,2.38,2.38,0,1.47-.79,2.21-2.38,2.21H7.22c-1.47,0-2.21-.74-2.21-2.21,0-1.59.74-2.38,2.21-2.38h2.55c2.15,0,3.23-1.08,3.23-3.24v-81.76c0-2.16-1.08-3.24-3.23-3.24h-2.55c-1.47,0-2.21-.79-2.21-2.38,0-1.47.74-2.21,2.21-2.21h17c2.49,0,3.74,1.29,3.74,3.88,0,1.16.51,1.45,1.53.88,5.21-3.17,10.77-4.76,16.66-4.76,9.29,0,17.17,3.21,23.63,9.63,6.46,6.42,9.69,14.29,9.69,23.6ZM74.88,310.16c0-7.93-2.8-14.68-8.42-20.23-5.61-5.55-12.38-8.33-20.31-8.33-5.67,0-10.82,1.53-15.47,4.59-1.81,1.13-2.72,2.83-2.72,5.1v37.74c0,2.27.91,3.97,2.72,5.1,4.87,3.17,10.03,4.76,15.47,4.76,7.93,0,14.7-2.81,20.31-8.42,5.61-5.61,8.42-12.38,8.42-20.32Z"/>
      <path class="cls-10" d="M151.04,310.25c0,9.32-3.23,17.19-9.69,23.61s-14.34,9.63-23.63,9.63-17-3.24-23.46-9.71c-6.46-6.48-9.69-14.32-9.69-23.52s3.23-17.04,9.69-23.52c6.46-6.48,14.28-9.72,23.46-9.72s17.17,3.21,23.63,9.63c6.46,6.42,9.69,14.29,9.69,23.6ZM146.45,310.16c0-7.93-2.8-14.68-8.42-20.23-5.61-5.55-12.38-8.33-20.31-8.33-3.51,0-6.8.57-9.86,1.7-2.04.79-3.06,2.32-3.06,4.59v44.71c0,2.15,1.02,3.63,3.06,4.42,3.17,1.25,6.46,1.87,9.86,1.87,7.93,0,14.71-2.81,20.31-8.42s8.42-12.38,8.42-20.32Z"/>
      <path class="cls-10" d="M226.18,302.84c.11,1.6-.57,2.39-2.04,2.39-1.59,0-2.44-.74-2.55-2.23-.57-6.05-3.09-11.13-7.57-15.24-4.48-4.11-9.72-6.17-15.72-6.17-6.46,0-11.99,2.29-16.58,6.88s-6.88,10.12-6.88,16.58v30.43c0,2.27,1.08,3.4,3.23,3.4h2.38c1.58,0,2.38.76,2.38,2.29s-.79,2.29-2.38,2.29h-26.35c-1.47,0-2.21-.77-2.21-2.29s.74-2.29,2.21-2.29h2.55c2.15,0,3.23-1.13,3.23-3.4v-50.66c0-2.15-1.08-3.23-3.23-3.23h-2.55c-1.47,0-2.21-.79-2.21-2.38,0-1.47.74-2.21,2.21-2.21h14.28c1.81,0,3.34.63,4.59,1.9,1.25,1.27,1.87,2.82,1.87,4.67v2.42c0,.58.28.98.85,1.21.57.23,1.02.11,1.36-.34,5.67-6.57,12.75-9.85,21.25-9.85,7.25,0,13.57,2.48,18.96,7.44,5.38,4.96,8.36,11.09,8.92,18.39Z"/>
      <path class="cls-10" d="M268.17,341.27c0,1.59-.74,2.32-2.21,2.21-8.73-.79-16.07-4.35-22.02-10.65-5.95-6.31-8.92-13.84-8.92-22.59v-25.4c0-2.16-1.08-3.24-3.23-3.24h-2.55c-1.47,0-2.21-.79-2.21-2.38,0-1.47.74-2.21,2.21-2.21h2.55c2.15,0,3.23-1.07,3.23-3.22v-52.05c0-1.7.65-3.19,1.96-4.49,1.3-1.3,2.8-1.95,4.5-1.95h14.11c1.58,0,2.38.79,2.38,2.38,0,1.47-.79,2.21-2.38,2.21h-2.38c-2.15,0-3.23,1.07-3.23,3.22v50.68c0,2.15,1.08,3.22,3.23,3.22h12.75c1.47,0,2.21.74,2.21,2.21,0,1.59-.74,2.38-2.21,2.38h-12.75c-2.15,0-3.23,1.08-3.23,3.24v25.4c0,8.64.79,14.89,2.38,18.76,2.49,6.02,7.03,9.32,13.6,9.89,1.47.11,2.21.91,2.21,2.38Z"/>
      <path class="cls-10" d="M322.91,279.22c0,1.59-.74,2.38-2.21,2.38h-12.75c-2.15,0-3.23,1.08-3.23,3.23v50.66c0,2.27,1.08,3.4,3.23,3.4h2.38c1.58,0,2.38.76,2.38,2.29s-.79,2.29-2.38,2.29h-26.35c-1.47,0-2.21-.77-2.21-2.29s.74-2.29,2.21-2.29h2.55c2.15,0,3.23-1.13,3.23-3.4v-50.66c0-2.15-1.08-3.23-3.23-3.23h-2.55c-1.47,0-2.21-.79-2.21-2.38,0-1.47.74-2.21,2.21-2.21h2.55c2.15,0,3.23-1.08,3.23-3.23v-25.5c0-8.73,2.97-16.21,8.92-22.44,5.95-6.23,13.29-9.75,22.02-10.54,1.47-.11,2.21.57,2.21,2.04,0,1.59-.74,2.44-2.21,2.55-6.69.57-11.22,3.8-13.6,9.69-1.59,3.85-2.38,10.09-2.38,18.7v25.5c0,2.15,1.08,3.23,3.23,3.23h12.75c1.47,0,2.21.74,2.21,2.21Z"/>
      <path class="cls-10" d="M391.07,310.25c0,9.32-3.23,17.19-9.69,23.61s-14.34,9.63-23.63,9.63-17-3.24-23.46-9.71c-6.46-6.48-9.69-14.32-9.69-23.52s3.23-17.04,9.69-23.52c6.46-6.48,14.28-9.72,23.46-9.72s17.17,3.21,23.63,9.63c6.46,6.42,9.69,14.29,9.69,23.6ZM386.49,310.16c0-7.93-2.8-14.68-8.42-20.23-5.61-5.55-12.38-8.33-20.31-8.33-3.51,0-6.8.57-9.86,1.7-2.04.79-3.06,2.32-3.06,4.59v44.71c0,2.15,1.02,3.63,3.06,4.42,3.17,1.25,6.46,1.87,9.86,1.87,7.93,0,14.71-2.81,20.31-8.42s8.42-12.38,8.42-20.32Z"/>
      <path class="cls-10" d="M427.11,341.19c0,1.53-.79,2.29-2.38,2.29h-26.35c-1.47,0-2.21-.77-2.21-2.29s.74-2.29,2.21-2.29h2.55c2.15,0,3.23-1.13,3.23-3.39v-112.38c0-2.15-1.08-3.22-3.23-3.22h-2.55c-1.47,0-2.21-.74-2.21-2.21,0-1.59.74-2.38,2.21-2.38h26.35c1.58,0,2.38.79,2.38,2.38,0,1.47-.79,2.21-2.38,2.21h-2.38c-2.15,0-3.23,1.08-3.23,3.22v112.38c0,2.26,1.08,3.39,3.23,3.39h2.38c1.58,0,2.38.76,2.38,2.29Z"/>
      <path class="cls-10" d="M467.4,341.19c0,1.53-.79,2.29-2.38,2.29h-26.35c-1.47,0-2.21-.77-2.21-2.29s.74-2.29,2.21-2.29h2.55c2.15,0,3.23-1.13,3.23-3.4v-50.66c0-2.15-1.08-3.23-3.23-3.23h-2.55c-1.47,0-2.21-.79-2.21-2.38,0-1.47.74-2.21,2.21-2.21h26.35c1.58,0,2.38.74,2.38,2.21,0,1.59-.79,2.38-2.38,2.38h-2.38c-2.15,0-3.23,1.08-3.23,3.23v50.66c0,2.27,1.08,3.4,3.23,3.4h2.38c1.58,0,2.38.76,2.38,2.29ZM459.41,263.92c0,2.15-.71,3.94-2.12,5.36s-3.2,2.12-5.36,2.12c-2.04,0-3.8-.74-5.27-2.21-1.47-1.47-2.21-3.23-2.21-5.27s.74-3.77,2.21-5.18c1.47-1.42,3.23-2.12,5.27-2.12s3.8.71,5.27,2.12c1.47,1.42,2.21,3.14,2.21,5.18Z"/>
      <path class="cls-10" d="M543.22,310.25c0,9.32-3.23,17.19-9.69,23.61s-14.34,9.63-23.63,9.63-17-3.24-23.46-9.71c-6.46-6.48-9.69-14.32-9.69-23.52s3.23-17.04,9.69-23.52c6.46-6.48,14.28-9.72,23.46-9.72s17.17,3.21,23.63,9.63c6.46,6.42,9.69,14.29,9.69,23.6ZM538.63,310.16c0-7.93-2.8-14.68-8.42-20.23-5.61-5.55-12.38-8.33-20.31-8.33-3.51,0-6.8.57-9.86,1.7-2.04.79-3.06,2.32-3.06,4.59v44.71c0,2.15,1.02,3.63,3.06,4.42,3.17,1.25,6.46,1.87,9.86,1.87,7.93,0,14.71-2.81,20.31-8.42s8.42-12.38,8.42-20.32Z"/>
    </g>
  </g>
  <g class="cls-1">
    <path class="cls-5" d="M467.3,163.65c-40.18,0,1.51-79.19,1.51-79.19,0,0,41.03,79.52-1.51,79.19Z"/>
    <path class="cls-5" d="M410.52,139.55c-28.41-28.13,57.64-54.94,57.64-54.94,0,0-27.79,84.95-57.64,54.94Z"/>
    <path class="cls-5" d="M387.59,82.76c0-39.78,80,1.5,80,1.5,0,0-80.33,40.62-80-1.5Z"/>
    <path class="cls-5" d="M411.93,26.55c28.41-28.13,55.5,57.06,55.5,57.06,0,0-85.81-27.51-55.5-57.06Z"/>
    <path class="cls-5" d="M469.3,3.85c40.18,0-1.51,79.19-1.51,79.19,0,0-41.03-79.52,1.51-79.19Z"/>
    <path class="cls-5" d="M526.08,27.95c28.41,28.13-57.64,54.94-57.64,54.94,0,0,27.79-84.95,57.64-54.94Z"/>
    <path class="cls-5" d="M549.01,84.74c0,39.78-80-1.5-80-1.5,0,0,80.33-40.62,80,1.5Z"/>
    <path class="cls-5" d="M524.66,140.95c-28.41,28.13-55.5-57.06-55.5-57.06,0,0,85.81,27.51,55.5,57.06Z"/>
  </g>
  <path class="cls-7" d="M225.72,153.77c0,9.72-5.3,17.61-11.84,17.61s-11.84-7.88-11.84-17.61,11.84-24.95,11.84-24.95c0,0,11.84,15.22,11.84,24.95ZM210.89,127.59s-19.24,2.48-26.19,9.35c-6.94,6.88-8.83,16.16-4.2,20.73s14,2.71,20.94-4.16c6.94-6.88,9.45-25.93,9.45-25.93ZM209.65,124.63s-15.38-11.72-25.2-11.72-17.78,5.25-17.78,11.72,7.96,11.72,17.78,11.72,25.2-11.72,25.2-11.72ZM210.89,121.67s-2.5-19.05-9.45-25.93c-6.94-6.88-16.32-8.74-20.94-4.16-4.62,4.58-2.74,13.86,4.2,20.73,6.94,6.88,26.19,9.35,26.19,9.35ZM213.88,120.45s11.84-15.22,11.84-24.95-5.3-17.61-11.84-17.61-11.84,7.88-11.84,17.61,11.84,24.95,11.84,24.95ZM216.87,121.67s19.24-2.48,26.19-9.35,8.83-16.16,4.2-20.73-14-2.71-20.94,4.16-9.45,25.93-9.45,25.93ZM218.11,124.63s15.38,11.72,25.2,11.72,17.78-5.25,17.78-11.72-7.96-11.72-17.78-11.72-25.2,11.72-25.2,11.72ZM216.87,127.59s2.5,19.05,9.45,25.93,16.32,8.74,20.94,4.16,2.74-13.86-4.2-20.73-26.19-9.35-26.19-9.35Z"/>
  <path class="cls-4" d="M303.05,75.21c0,4.72-2.57,8.55-5.75,8.55s-5.75-3.83-5.75-8.55,5.75-12.11,5.75-12.11c0,0,5.75,7.39,5.75,12.11ZM295.85,62.5s-9.34,1.2-12.71,4.54c-3.37,3.34-4.29,7.84-2.04,10.07s6.8,1.32,10.17-2.02c3.37-3.34,4.59-12.59,4.59-12.59ZM295.25,61.06s-7.47-5.69-12.23-5.69-8.63,2.55-8.63,5.69,3.86,5.69,8.63,5.69,12.23-5.69,12.23-5.69ZM295.85,59.63s-1.22-9.25-4.59-12.59c-3.37-3.34-7.92-4.24-10.17-2.02-2.24,2.22-1.33,6.73,2.04,10.07,3.37,3.34,12.71,4.54,12.71,4.54ZM297.3,59.03s5.75-7.39,5.75-12.11-2.57-8.55-5.75-8.55-5.75,3.83-5.75,8.55,5.75,12.11,5.75,12.11ZM298.75,59.63s9.34-1.2,12.71-4.54c3.37-3.34,4.29-7.84,2.04-10.07-2.24-2.22-6.8-1.32-10.17,2.02-3.37,3.34-4.59,12.59-4.59,12.59ZM299.36,61.06s7.47,5.69,12.23,5.69,8.63-2.55,8.63-5.69-3.86-5.69-8.63-5.69-12.23,5.69-12.23,5.69ZM298.75,62.5s1.22,9.25,4.59,12.59c3.37,3.34,7.92,4.24,10.17,2.02,2.24-2.22,1.33-6.73-2.04-10.07s-12.71-4.54-12.71-4.54Z"/>
  <g class="cls-2">
    <path class="cls-3" d="M155.29,402.35c1.12.24,2.29.52,3.51.84-.23,1.92-.65,3.83-1.27,5.72,2.11.21,4.32.49,6.61.84,0,.83-.15,1.72-.45,2.68-3.21-.08-6.49-.44-9.82-1.08.34-2.03.76-4,1.24-5.92-1.51-.43-2.82-.81-3.93-1.16.46-1.89.9-3.76,1.31-5.6-.87-.19-1.78-.49-2.72-.92,0-.85.08-1.81.24-2.88,2.59.29,4.86.72,6.78,1.28-.28,1.79-.78,3.85-1.51,6.2ZM153.08,386.38c1.72.19,3.58.92,5.58,2.2-.16.88-.49,1.75-1,2.6-2-.11-3.79-.87-5.37-2.28.23-.93.49-1.77.79-2.52ZM161.35,395.3c.69,0,1.19.05,1.51.16.3,3.87.45,8.1.45,12.68h-3.07c-.28-4.48-.41-8.66-.41-12.52.18-.11.69-.21,1.52-.32ZM164.48,382.22c.25,3.52.39,6.76.41,9.72-.53.35-1.49.52-2.89.52-.37-2.88-.55-6.24-.55-10.08,1.06-.11,2.07-.16,3.03-.16ZM176.05,393.7c.78,0,1.56.05,2.34.16.28,3.87.41,7.51.41,10.92,0,1.68-.08,3.05-.24,4.12-.16.32-1.44.48-3.82.48-.34-.72-.52-1.41-.52-2.08.34-.11.72-.2,1.14-.28,0-3.41-.09-6.83-.28-10.24-3.88-.11-7.81-.37-11.78-.8.05-.96.16-1.92.34-2.88,1.12,0,2.25.05,3.38.16-.09-1.17-.17-2.35-.24-3.52h-.59c-.07-.88-.13-1.8-.17-2.76,1.01-.21,2.42-.41,4.24-.6.73,0,1.26.04,1.58.12v2.6c-.64.21-1.39.37-2.24.48.14,1.17.23,2.4.28,3.68.92.08,1.86.12,2.82.12-.02-2.64-.04-5.47-.04-8.48-2.09-.11-4.33-.41-6.72-.92-.09-.64-.14-1.12-.14-1.44.05-.56.12-1.04.21-1.44,3.67.11,7.08.25,10.23.44,0,4.08-.07,8.14-.21,12.16ZM173.16,407.15c-2.75.21-5.48.32-8.16.32-.39-2.53-.68-5.03-.86-7.48,2.82-.21,5.74-.32,8.75-.32.18,2.46.28,4.95.28,7.48ZM167.31,402.35l.31,2.6,2.58-.32-.21-2.28h-2.69Z"/>
    <path class="cls-3" d="M198.76,388.42c.16,2.69.29,5.38.38,8.04,3.31-.21,6.61-.37,9.92-.48.18.43.28.84.28,1.24v1.6c-8.4.77-16.75,1.31-25.04,1.6-.28-.51-.41-1.04-.41-1.6v-1.44c3.97-.32,7.93-.57,11.88-.76-.23-2.77-.42-5.56-.59-8.36-3.54-.08-7.05-.23-10.54-.44v-1.6c.05-.43.07-.87.07-1.32,3.19,0,6.64.05,10.33.16-.05-1.36-.09-2.68-.14-3.96,1.1-.21,2.26-.32,3.48-.32.07,1.49.15,2.97.24,4.44,3.21.11,6.58.28,10.09.52,0,.93-.07,1.88-.21,2.84-3.24,0-6.49-.05-9.75-.16ZM192.25,401.59c.8.11,1.4.25,1.79.44-.28,2.16-.54,4.36-.79,6.6,1.49.29,3.96.72,7.4,1.28.05.43.07.85.07,1.28s-.02.95-.07,1.56c-4.46,0-8.42-.52-11.88-1.56.44-3.31,1.11-6.45,2.03-9.44.23,0,.71-.05,1.45-.16ZM205.99,403.95c.94,1.17,1.6,2.99,1.96,5.44-.83.56-1.65.84-2.48.84-1.03-1.49-1.67-3.36-1.89-5.6.67-.24,1.47-.47,2.41-.68Z"/>
    <path class="cls-3" d="M220.88,386.5h2.27v-4.28c.18-.13.69-.25,1.51-.36.69,0,1.19.05,1.52.16.07,1.63.15,3.23.24,4.8,1.81.21,3.74.44,5.79.68,0,.83-.07,1.77-.21,2.84-1.81,0-3.64-.05-5.48-.16.05,1.07.09,2.19.14,3.36,1.54-.11,3.1-.25,4.68-.44.09.96.14,1.92.14,2.88-1.58.43-3.17.73-4.75.92.02.67.04,1.31.04,1.92.71-.11,1.49-.16,2.34-.16,2.57.21,3.86.44,3.86.68.21,1.49.31,2.72.31,3.68,0,2.56-.1,4.57-.31,6.04-.41.21-.92.32-1.52.32-.96,0-1.78-.16-2.45-.48-.05-.51-.07-1.13-.07-1.88.44,0,.85-.11,1.24-.32-.05-1.39-.17-2.95-.38-4.68-.67-.08-1.18-.12-1.55-.12h-1.41c.02,2.54.04,5.15.04,7.84h-3.1c-.12-2.69-.21-5.31-.28-7.84-1.56-.11-2.4-.16-2.51-.16-.12-.67-.17-1.53-.17-2.6.18,0,1.04-.05,2.58-.16-.02-.51-.04-1.09-.04-1.76-1.33.11-2.66.16-4,.16-.14-.83-.23-1.72-.28-2.68,1.35-.21,2.74-.44,4.17-.68-.02-1.39-.05-2.76-.07-4.12-1.08-.11-2.16-.27-3.24-.48-1.08,3.31-2.1,5.76-3.07,7.36-1.17,0-2.12-.21-2.86-.64,1.19-5.15,2.82-9.63,4.89-13.44,1.1.11,2.05.41,2.86.92-.3.96-.6,1.92-.9,2.88ZM218.54,400.15h1.17c.21,2.03.31,3.68.31,4.96,0,1.47-.1,2.64-.31,3.52-.21.11-.6.16-1.17.16-.64,0-1.09-.05-1.34-.16-.28-.99-.41-2.16-.41-3.52.07-1.73.21-3.39.41-4.96h1.34ZM237.59,391.18c.32,2.85.5,5.45.55,7.8-.57.35-1.54.52-2.89.52-.46-2.35-.69-5.01-.69-8,1.06-.11,2.07-.21,3.03-.32ZM242.37,386.82c.55,6.54.9,12.95,1.03,19.24-.69.53-2.16.8-4.41.8-.16-.77-.26-1.69-.31-2.76.34,0,.68-.05,1-.16-.09-5.65-.18-11.26-.28-16.8.85,0,1.84-.11,2.96-.32Z"/>
    <path class="cls-3" d="M253.58,394.02c.71,3.65,1.25,7.4,1.62,11.24-.87.19-1.86.28-2.96.28-.71-3.41-1.31-6.92-1.79-10.52-.9.29-1.78.49-2.65.6-.3-.72-.45-1.56-.45-2.52,3.24-1.95,6.44-3.12,9.61-3.52.44.85.65,1.81.65,2.88-1.38.61-2.72,1.13-4.03,1.56ZM265.12,387.34c3.95,0,7.85.21,11.71.64,0,1.07-.08,2.08-.24,3.04-2.39,0-4.74-.05-7.06-.16.05,1.6.08,3.19.1,4.76,1.56.13,3.26.31,5.1.52,0,.83-.06,1.77-.17,2.84-1.63,0-3.25-.11-4.86-.32.02,1.63.05,3.29.07,5,1.7-.21,3.48-.32,5.34-.32.05.4.07.83.07,1.28v1.6c-1.79.21-3.59.37-5.41.48.02,1.39.03,2.88.03,4.48-.32.11-.83.16-1.52.16-.5,0-1.03-.05-1.58-.16-.16-2.88-.25-6.83-.28-11.84,0-3.87.01-6.75.03-8.64-.85-.13-1.7-.2-2.55-.2-.99,2.59-2.03,5.11-3.13,7.56-1.08-.32-2.04-.75-2.89-1.28,1.74-5.01,3.68-10.1,5.82-15.24,1.08.11,2.11.39,3.1.84-.53,1.68-1.09,3.33-1.69,4.96Z"/>
    <path class="cls-3" d="M306.73,394.5c-1.26.13-2.85.19-4.75.16-.32,2.29-.79,5-1.41,8.12-.53,2.77-.91,4.52-1.14,5.24-1.08.16-2.05-.04-2.93-.6.32-2.69.98-6.97,1.96-12.84l-8.4-.04c.14,4.16.21,6.61.21,7.36-.48.32-1.09.48-1.83.48-.37,0-.72-.04-1.07-.12-.25-2.16-.45-4.73-.58-7.72l-4.72-.24c-.21-.43-.31-1.03-.31-1.8,0-.59.07-1.16.21-1.72,1.79-.05,3.33-.12,4.62-.2-.05-1.41-.03-3.04.03-4.88.6-.24,1.08-.36,1.45-.36.5,0,1,.03,1.48.08.18,2.29.3,4.01.34,5.16h9.13c.44-2.32.9-4.45,1.38-6.4.94.08,1.94.28,3,.6l-.83,6c2.48.08,3.89.2,4.24.36.14.32.21.83.21,1.52,0,.61-.09,1.23-.28,1.84Z"/>
    <path class="cls-3" d="M328.71,390.22l-13.43,7c-.44-.64-.76-1.15-.96-1.52-.18-.51-.34-1.01-.48-1.52,3.12-2.03,6.75-4.12,10.88-6.28,3.6-1.87,6.74-3.39,9.4-4.56l.24.2c.32.51.49.85.52,1.04.3.45.48,1.05.55,1.8-.96.69-3.2,1.97-6.72,3.84ZM326.78,409.23c-.5.05-1.03.03-1.58-.08-.83-4.61-1.3-9.58-1.41-14.88.71-.56,1.71-.71,3-.44.48,1.73,1.03,6.72,1.65,14.96-.69.24-1.24.39-1.65.44Z"/>
    <path class="cls-3" d="M346.8,410.35c-.74,0-1.33-.05-1.79-.16-.18-2.29-.28-7.19-.28-14.68,0-2.21.08-6.67.24-13.36.57-.24,1.11-.36,1.62-.36.39,0,.92.12,1.58.36l.1,27.85c-.44.24-.93.36-1.48.36ZM359.23,398.27c-.25.64-.49,1.13-.72,1.48-2.27-.59-5.37-2.11-9.3-4.56.25-1.31.69-2.37,1.31-3.2.99.35,2.56,1.07,4.72,2.16,2.32,1.17,3.79,2.03,4.41,2.56-.12.67-.25,1.19-.41,1.56Z"/>
    <path class="cls-3" d="M387.82,392.82c-2.36.35-7.22.83-14.57,1.44.09,2.72.07,5.99-.07,9.8,1.47.48,4.55.87,9.23,1.16.07.67.1,1.15.1,1.44,0,.37-.08.93-.24,1.68-.69.11-1.46.16-2.31.16-1.33,0-3-.13-4.99-.4-2.55-.35-4.16-.75-4.82-1.2-.21-.67-.31-4.49-.31-11.48,0-3.15.13-6.67.38-10.56.69-.35,1.65-.39,2.89-.12.07,1.71.1,3.61.1,5.72,6.77-.48,11.56-.76,14.36-.84.23.45.34,1,.34,1.64,0,.4-.03.92-.1,1.56ZM393.19,382.46c0,1.01-.31,1.87-.93,2.56-.62.69-1.33,1.04-2.14,1.04-.9,0-1.64-.35-2.24-1.04-.57-.67-.86-1.52-.86-2.56s.29-1.87.86-2.56c.6-.67,1.34-1,2.24-1s1.6.33,2.17,1c.6.69.9,1.55.9,2.56ZM391.3,382.46c0-.88-.38-1.32-1.14-1.32-.87,0-1.31.44-1.31,1.32,0,.4.13.73.38,1,.28.29.59.44.93.44.76,0,1.14-.48,1.14-1.44Z"/>
    <path class="cls-3" d="M400.56,396.9c-.25.13-.75.33-1.48.6-.69-1.63-1.45-3.88-2.27-6.76.73-.83,1.63-1.24,2.69-1.24.67,1.49,1.41,3.65,2.24,6.48-.28.35-.67.65-1.17.92ZM408.72,395.14c-.34.27-.79.57-1.34.92-1.42-1.97-2.58-3.73-3.48-5.28.6-1.15,1.34-1.87,2.24-2.16,1.52,2,2.71,3.72,3.58,5.16-.16.32-.49.77-1,1.36ZM408.06,408.75c-.8-.24-1.56-.93-2.27-2.08,4.82-7.42,7.91-11.9,9.26-13.44.92.37,1.67,1.01,2.24,1.92-.51,1.09-1.98,3.41-4.41,6.96-2.46,3.6-4.06,5.81-4.82,6.64Z"/>
    <path class="cls-3" d="M432.08,390.94c-2.41,4.13-4.04,6.86-4.89,8.16-.44-.05-.91-.24-1.41-.56l-1.24-1.04c.73-1.89,2.23-4.71,4.48-8.44,2.09-3.55,3.9-6.35,5.44-8.4.92.29,1.7.93,2.34,1.92-.44.99-2.01,3.77-4.72,8.36ZM444.65,400.71c-2,4.03-4.11,7.65-6.34,10.88-1.01-.37-1.88-.97-2.62-1.8.76-1.47,2.24-4.23,4.44-8.28,1.72-3.31,2.82-5.44,3.31-6.4-3.05-1.23-6.05-2.48-8.99-3.76,0-1.25.31-2.29.93-3.12.69.08,2.88.83,6.58,2.24,3.74,1.44,5.73,2.41,5.96,2.92-.51,1.55-1.6,3.99-3.27,7.32Z"/>
    <path class="cls-3" d="M475.01,396.5l-.58,1.24c-1.56-.24-2.56-.69-3-1.36l2-7.56c-3.54-.43-10.48-.79-20.84-1.08-.16-.72-.24-1.33-.24-1.84,0-.72.1-1.31.31-1.76,1.54-.11,3.24-.16,5.1-.16,3.86,0,8.14.21,12.85.64,4.34.4,6.72.87,7.13,1.4-.07.83-.98,4.32-2.72,10.48ZM463.37,402.19l-.83,2.4c-.67,2.03-1.16,3.46-1.48,4.28-1.13,0-2.16-.55-3.1-1.64l4.24-12.84c1.33.19,2.34.57,3.03,1.16-.07.8-.69,3.01-1.86,6.64Z"/>
    <path class="cls-3" d="M488.12,396.9c-.25.13-.75.33-1.48.6-.69-1.63-1.45-3.88-2.27-6.76.73-.83,1.63-1.24,2.69-1.24.67,1.49,1.41,3.65,2.24,6.48-.28.35-.67.65-1.17.92ZM496.28,395.14c-.34.27-.79.57-1.34.92-1.42-1.97-2.58-3.73-3.48-5.28.6-1.15,1.34-1.87,2.24-2.16,1.52,2,2.71,3.72,3.58,5.16-.16.32-.49.77-1,1.36ZM495.63,408.75c-.8-.24-1.56-.93-2.27-2.08,4.82-7.42,7.91-11.9,9.26-13.44.92.37,1.67,1.01,2.24,1.92-.51,1.09-1.98,3.41-4.41,6.96-2.46,3.6-4.06,5.81-4.82,6.64Z"/>
    <path class="cls-3" d="M528.79,399.03c-1.4,4.11-2.78,7.14-4.13,9.08-.99-.13-1.88-.65-2.69-1.56,1.61-3.55,2.8-6.49,3.58-8.84.83-2.61,1.58-5.2,2.27-7.76-6.71-.59-12.38-1.03-17.01-1.32-.23-.45-.34-1.05-.34-1.8,0-.51.08-1.04.24-1.6,2.48-.08,5.8.05,9.95.4,7.12.51,10.94.97,11.47,1.4-.67,3.36-1.78,7.36-3.34,12ZM537.19,381.54c0,1.01-.3,1.88-.9,2.6-.57.69-1.3,1.04-2.17,1.04s-1.62-.35-2.24-1.04c-.57-.72-.86-1.59-.86-2.6s.29-1.85.86-2.52c.62-.72,1.37-1.08,2.24-1.08s1.59.36,2.17,1.08c.6.67.9,1.51.9,2.52ZM535.37,381.54c0-.91-.41-1.36-1.24-1.36s-1.27.45-1.27,1.36c0,.43.13.77.38,1.04.28.27.57.4.9.4.83,0,1.24-.48,1.24-1.44Z"/>
  </g>
  <g>
    <path class="cls-8" d="M155.29,402.35c1.12.24,2.29.52,3.51.84-.23,1.92-.65,3.83-1.27,5.72,2.11.21,4.32.49,6.61.84,0,.83-.15,1.72-.45,2.68-3.21-.08-6.49-.44-9.82-1.08.34-2.03.76-4,1.24-5.92-1.51-.43-2.82-.81-3.93-1.16.46-1.89.9-3.76,1.31-5.6-.87-.19-1.78-.49-2.72-.92,0-.85.08-1.81.24-2.88,2.59.29,4.86.72,6.78,1.28-.28,1.79-.78,3.85-1.51,6.2ZM153.08,386.38c1.72.19,3.58.92,5.58,2.2-.16.88-.49,1.75-1,2.6-2-.11-3.79-.87-5.37-2.28.23-.93.49-1.77.79-2.52ZM161.35,395.3c.69,0,1.19.05,1.51.16.3,3.87.45,8.1.45,12.68h-3.07c-.28-4.48-.41-8.66-.41-12.52.18-.11.69-.21,1.52-.32ZM164.48,382.22c.25,3.52.39,6.76.41,9.72-.53.35-1.49.52-2.89.52-.37-2.88-.55-6.24-.55-10.08,1.06-.11,2.07-.16,3.03-.16ZM176.05,393.7c.78,0,1.56.05,2.34.16.28,3.87.41,7.51.41,10.92,0,1.68-.08,3.05-.24,4.12-.16.32-1.44.48-3.82.48-.34-.72-.52-1.41-.52-2.08.34-.11.72-.2,1.14-.28,0-3.41-.09-6.83-.28-10.24-3.88-.11-7.81-.37-11.78-.8.05-.96.16-1.92.34-2.88,1.12,0,2.25.05,3.38.16-.09-1.17-.17-2.35-.24-3.52h-.59c-.07-.88-.13-1.8-.17-2.76,1.01-.21,2.42-.41,4.24-.6.73,0,1.26.04,1.58.12v2.6c-.64.21-1.39.37-2.24.48.14,1.17.23,2.4.28,3.68.92.08,1.86.12,2.82.12-.02-2.64-.04-5.47-.04-8.48-2.09-.11-4.33-.41-6.72-.92-.09-.64-.14-1.12-.14-1.44.05-.56.12-1.04.21-1.44,3.67.11,7.08.25,10.23.44,0,4.08-.07,8.14-.21,12.16ZM173.16,407.15c-2.75.21-5.48.32-8.16.32-.39-2.53-.68-5.03-.86-7.48,2.82-.21,5.74-.32,8.75-.32.18,2.46.28,4.95.28,7.48ZM167.31,402.35l.31,2.6,2.58-.32-.21-2.28h-2.69Z"/>
    <path class="cls-8" d="M198.76,388.42c.16,2.69.29,5.38.38,8.04,3.31-.21,6.61-.37,9.92-.48.18.43.28.84.28,1.24v1.6c-8.4.77-16.75,1.31-25.04,1.6-.28-.51-.41-1.04-.41-1.6v-1.44c3.97-.32,7.93-.57,11.88-.76-.23-2.77-.42-5.56-.59-8.36-3.54-.08-7.05-.23-10.54-.44v-1.6c.05-.43.07-.87.07-1.32,3.19,0,6.64.05,10.33.16-.05-1.36-.09-2.68-.14-3.96,1.1-.21,2.26-.32,3.48-.32.07,1.49.15,2.97.24,4.44,3.21.11,6.58.28,10.09.52,0,.93-.07,1.88-.21,2.84-3.24,0-6.49-.05-9.75-.16ZM192.25,401.59c.8.11,1.4.25,1.79.44-.28,2.16-.54,4.36-.79,6.6,1.49.29,3.96.72,7.4,1.28.05.43.07.85.07,1.28s-.02.95-.07,1.56c-4.46,0-8.42-.52-11.88-1.56.44-3.31,1.11-6.45,2.03-9.44.23,0,.71-.05,1.45-.16ZM205.99,403.95c.94,1.17,1.6,2.99,1.96,5.44-.83.56-1.65.84-2.48.84-1.03-1.49-1.67-3.36-1.89-5.6.67-.24,1.47-.47,2.41-.68Z"/>
    <path class="cls-8" d="M220.88,386.5h2.27v-4.28c.18-.13.69-.25,1.51-.36.69,0,1.19.05,1.52.16.07,1.63.15,3.23.24,4.8,1.81.21,3.74.44,5.79.68,0,.83-.07,1.77-.21,2.84-1.81,0-3.64-.05-5.48-.16.05,1.07.09,2.19.14,3.36,1.54-.11,3.1-.25,4.68-.44.09.96.14,1.92.14,2.88-1.58.43-3.17.73-4.75.92.02.67.04,1.31.04,1.92.71-.11,1.49-.16,2.34-.16,2.57.21,3.86.44,3.86.68.21,1.49.31,2.72.31,3.68,0,2.56-.1,4.57-.31,6.04-.41.21-.92.32-1.52.32-.96,0-1.78-.16-2.45-.48-.05-.51-.07-1.13-.07-1.88.44,0,.85-.11,1.24-.32-.05-1.39-.17-2.95-.38-4.68-.67-.08-1.18-.12-1.55-.12h-1.41c.02,2.54.04,5.15.04,7.84h-3.1c-.12-2.69-.21-5.31-.28-7.84-1.56-.11-2.4-.16-2.51-.16-.12-.67-.17-1.53-.17-2.6.18,0,1.04-.05,2.58-.16-.02-.51-.04-1.09-.04-1.76-1.33.11-2.66.16-4,.16-.14-.83-.23-1.72-.28-2.68,1.35-.21,2.74-.44,4.17-.68-.02-1.39-.05-2.76-.07-4.12-1.08-.11-2.16-.27-3.24-.48-1.08,3.31-2.1,5.76-3.07,7.36-1.17,0-2.12-.21-2.86-.64,1.19-5.15,2.82-9.63,4.89-13.44,1.1.11,2.05.41,2.86.92-.3.96-.6,1.92-.9,2.88ZM218.54,400.15h1.17c.21,2.03.31,3.68.31,4.96,0,1.47-.1,2.64-.31,3.52-.21.11-.6.16-1.17.16-.64,0-1.09-.05-1.34-.16-.28-.99-.41-2.16-.41-3.52.07-1.73.21-3.39.41-4.96h1.34ZM237.59,391.18c.32,2.85.5,5.45.55,7.8-.57.35-1.54.52-2.89.52-.46-2.35-.69-5.01-.69-8,1.06-.11,2.07-.21,3.03-.32ZM242.37,386.82c.55,6.54.9,12.95,1.03,19.24-.69.53-2.16.8-4.41.8-.16-.77-.26-1.69-.31-2.76.34,0,.68-.05,1-.16-.09-5.65-.18-11.26-.28-16.8.85,0,1.84-.11,2.96-.32Z"/>
    <path class="cls-8" d="M253.58,394.02c.71,3.65,1.25,7.4,1.62,11.24-.87.19-1.86.28-2.96.28-.71-3.41-1.31-6.92-1.79-10.52-.9.29-1.78.49-2.65.6-.3-.72-.45-1.56-.45-2.52,3.24-1.95,6.44-3.12,9.61-3.52.44.85.65,1.81.65,2.88-1.38.61-2.72,1.13-4.03,1.56ZM265.12,387.34c3.95,0,7.85.21,11.71.64,0,1.07-.08,2.08-.24,3.04-2.39,0-4.74-.05-7.06-.16.05,1.6.08,3.19.1,4.76,1.56.13,3.26.31,5.1.52,0,.83-.06,1.77-.17,2.84-1.63,0-3.25-.11-4.86-.32.02,1.63.05,3.29.07,5,1.7-.21,3.48-.32,5.34-.32.05.4.07.83.07,1.28v1.6c-1.79.21-3.59.37-5.41.48.02,1.39.03,2.88.03,4.48-.32.11-.83.16-1.52.16-.5,0-1.03-.05-1.58-.16-.16-2.88-.25-6.83-.28-11.84,0-3.87.01-6.75.03-8.64-.85-.13-1.7-.2-2.55-.2-.99,2.59-2.03,5.11-3.13,7.56-1.08-.32-2.04-.75-2.89-1.28,1.74-5.01,3.68-10.1,5.82-15.24,1.08.11,2.11.39,3.1.84-.53,1.68-1.09,3.33-1.69,4.96Z"/>
    <path class="cls-8" d="M306.73,394.5c-1.26.13-2.85.19-4.75.16-.32,2.29-.79,5-1.41,8.12-.53,2.77-.91,4.52-1.14,5.24-1.08.16-2.05-.04-2.93-.6.32-2.69.98-6.97,1.96-12.84l-8.4-.04c.14,4.16.21,6.61.21,7.36-.48.32-1.09.48-1.83.48-.37,0-.72-.04-1.07-.12-.25-2.16-.45-4.73-.58-7.72l-4.72-.24c-.21-.43-.31-1.03-.31-1.8,0-.59.07-1.16.21-1.72,1.79-.05,3.33-.12,4.62-.2-.05-1.41-.03-3.04.03-4.88.6-.24,1.08-.36,1.45-.36.5,0,1,.03,1.48.08.18,2.29.3,4.01.34,5.16h9.13c.44-2.32.9-4.45,1.38-6.4.94.08,1.94.28,3,.6l-.83,6c2.48.08,3.89.2,4.24.36.14.32.21.83.21,1.52,0,.61-.09,1.23-.28,1.84Z"/>
    <path class="cls-8" d="M328.71,390.22l-13.43,7c-.44-.64-.76-1.15-.96-1.52-.18-.51-.34-1.01-.48-1.52,3.12-2.03,6.75-4.12,10.88-6.28,3.6-1.87,6.74-3.39,9.4-4.56l.24.2c.32.51.49.85.52,1.04.3.45.48,1.05.55,1.8-.96.69-3.2,1.97-6.72,3.84ZM326.78,409.23c-.5.05-1.03.03-1.58-.08-.83-4.61-1.3-9.58-1.41-14.88.71-.56,1.71-.71,3-.44.48,1.73,1.03,6.72,1.65,14.96-.69.24-1.24.39-1.65.44Z"/>
    <path class="cls-8" d="M346.8,410.35c-.74,0-1.33-.05-1.79-.16-.18-2.29-.28-7.19-.28-14.68,0-2.21.08-6.67.24-13.36.57-.24,1.11-.36,1.62-.36.39,0,.92.12,1.58.36l.1,27.85c-.44.24-.93.36-1.48.36ZM359.23,398.27c-.25.64-.49,1.13-.72,1.48-2.27-.59-5.37-2.11-9.3-4.56.25-1.31.69-2.37,1.31-3.2.99.35,2.56,1.07,4.72,2.16,2.32,1.17,3.79,2.03,4.41,2.56-.12.67-.25,1.19-.41,1.56Z"/>
    <path class="cls-8" d="M387.82,392.82c-2.36.35-7.22.83-14.57,1.44.09,2.72.07,5.99-.07,9.8,1.47.48,4.55.87,9.23,1.16.07.67.1,1.15.1,1.44,0,.37-.08.93-.24,1.68-.69.11-1.46.16-2.31.16-1.33,0-3-.13-4.99-.4-2.55-.35-4.16-.75-4.82-1.2-.21-.67-.31-4.49-.31-11.48,0-3.15.13-6.67.38-10.56.69-.35,1.65-.39,2.89-.12.07,1.71.1,3.61.1,5.72,6.77-.48,11.56-.76,14.36-.84.23.45.34,1,.34,1.64,0,.4-.03.92-.1,1.56ZM393.19,382.46c0,1.01-.31,1.87-.93,2.56-.62.69-1.33,1.04-2.14,1.04-.9,0-1.64-.35-2.24-1.04-.57-.67-.86-1.52-.86-2.56s.29-1.87.86-2.56c.6-.67,1.34-1,2.24-1s1.6.33,2.17,1c.6.69.9,1.55.9,2.56ZM391.3,382.46c0-.88-.38-1.32-1.14-1.32-.87,0-1.31.44-1.31,1.32,0,.4.13.73.38,1,.28.29.59.44.93.44.76,0,1.14-.48,1.14-1.44Z"/>
    <path class="cls-8" d="M400.56,396.9c-.25.13-.75.33-1.48.6-.69-1.63-1.45-3.88-2.27-6.76.73-.83,1.63-1.24,2.69-1.24.67,1.49,1.41,3.65,2.24,6.48-.28.35-.67.65-1.17.92ZM408.72,395.14c-.34.27-.79.57-1.34.92-1.42-1.97-2.58-3.73-3.48-5.28.6-1.15,1.34-1.87,2.24-2.16,1.52,2,2.71,3.72,3.58,5.16-.16.32-.49.77-1,1.36ZM408.06,408.75c-.8-.24-1.56-.93-2.27-2.08,4.82-7.42,7.91-11.9,9.26-13.44.92.37,1.67,1.01,2.24,1.92-.51,1.09-1.98,3.41-4.41,6.96-2.46,3.6-4.06,5.81-4.82,6.64Z"/>
    <path class="cls-8" d="M432.08,390.94c-2.41,4.13-4.04,6.86-4.89,8.16-.44-.05-.91-.24-1.41-.56l-1.24-1.04c.73-1.89,2.23-4.71,4.48-8.44,2.09-3.55,3.9-6.35,5.44-8.4.92.29,1.7.93,2.34,1.92-.44.99-2.01,3.77-4.72,8.36ZM444.65,400.71c-2,4.03-4.11,7.65-6.34,10.88-1.01-.37-1.88-.97-2.62-1.8.76-1.47,2.24-4.23,4.44-8.28,1.72-3.31,2.82-5.44,3.31-6.4-3.05-1.23-6.05-2.48-8.99-3.76,0-1.25.31-2.29.93-3.12.69.08,2.88.83,6.58,2.24,3.74,1.44,5.73,2.41,5.96,2.92-.51,1.55-1.6,3.99-3.27,7.32Z"/>
    <path class="cls-8" d="M475.01,396.5l-.58,1.24c-1.56-.24-2.56-.69-3-1.36l2-7.56c-3.54-.43-10.48-.79-20.84-1.08-.16-.72-.24-1.33-.24-1.84,0-.72.1-1.31.31-1.76,1.54-.11,3.24-.16,5.1-.16,3.86,0,8.14.21,12.85.64,4.34.4,6.72.87,7.13,1.4-.07.83-.98,4.32-2.72,10.48ZM463.37,402.19l-.83,2.4c-.67,2.03-1.16,3.46-1.48,4.28-1.13,0-2.16-.55-3.1-1.64l4.24-12.84c1.33.19,2.34.57,3.03,1.16-.07.8-.69,3.01-1.86,6.64Z"/>
    <path class="cls-8" d="M488.12,396.9c-.25.13-.75.33-1.48.6-.69-1.63-1.45-3.88-2.27-6.76.73-.83,1.63-1.24,2.69-1.24.67,1.49,1.41,3.65,2.24,6.48-.28.35-.67.65-1.17.92ZM496.28,395.14c-.34.27-.79.57-1.34.92-1.42-1.97-2.58-3.73-3.48-5.28.6-1.15,1.34-1.87,2.24-2.16,1.52,2,2.71,3.72,3.58,5.16-.16.32-.49.77-1,1.36ZM495.63,408.75c-.8-.24-1.56-.93-2.27-2.08,4.82-7.42,7.91-11.9,9.26-13.44.92.37,1.67,1.01,2.24,1.92-.51,1.09-1.98,3.41-4.41,6.96-2.46,3.6-4.06,5.81-4.82,6.64Z"/>
    <path class="cls-8" d="M528.79,399.03c-1.4,4.11-2.78,7.14-4.13,9.08-.99-.13-1.88-.65-2.69-1.56,1.61-3.55,2.8-6.49,3.58-8.84.83-2.61,1.58-5.2,2.27-7.76-6.71-.59-12.38-1.03-17.01-1.32-.23-.45-.34-1.05-.34-1.8,0-.51.08-1.04.24-1.6,2.48-.08,5.8.05,9.95.4,7.12.51,10.94.97,11.47,1.4-.67,3.36-1.78,7.36-3.34,12ZM537.19,381.54c0,1.01-.3,1.88-.9,2.6-.57.69-1.3,1.04-2.17,1.04s-1.62-.35-2.24-1.04c-.57-.72-.86-1.59-.86-2.6s.29-1.85.86-2.52c.62-.72,1.37-1.08,2.24-1.08s1.59.36,2.17,1.08c.6.67.9,1.51.9,2.52ZM535.37,381.54c0-.91-.41-1.36-1.24-1.36s-1.27.45-1.27,1.36c0,.43.13.77.38,1.04.28.27.57.4.9.4.83,0,1.24-.48,1.24-1.44Z"/>
  </g>
</svg>